<svg width="158" height="24" viewBox="0 0 158 24" fill="none" xmlns="http://www.w3.org/2000/svg">
<path fill-rule="evenodd" clip-rule="evenodd" d="M8 1.25C8.41421 1.25 8.75 1.58579 8.75 2V3.25H15.25V2C15.25 1.58579 15.5858 1.25 16 1.25C16.4142 1.25 16.75 1.58579 16.75 2V3.25H19C20.5188 3.25 21.75 4.48122 21.75 6V20C21.75 21.5188 20.5188 22.75 19 22.75H5C3.48122 22.75 2.25 21.5188 2.25 20V6C2.25 4.48122 3.48122 3.25 5 3.25H7.25V2C7.25 1.58579 7.58579 1.25 8 1.25ZM7.25 4.75H5C4.30964 4.75 3.75 5.30964 3.75 6V9.25H20.25V6C20.25 5.30964 19.6904 4.75 19 4.75H16.75V6C16.75 6.41421 16.4142 6.75 16 6.75C15.5858 6.75 15.25 6.41421 15.25 6V4.75H8.75V6C8.75 6.41421 8.41421 6.75 8 6.75C7.58579 6.75 7.25 6.41421 7.25 6V4.75ZM20.25 10.75H3.75V20C3.75 20.6904 4.30964 21.25 5 21.25H19C19.6904 21.25 20.25 20.6904 20.25 20V10.75Z" fill="#869198"/>
<path d="M40.536 15.074C41.184 15.074 41.646 14.96 41.922 14.732C42.21 14.492 42.354 14.21 42.354 13.886C42.354 13.586 42.24 13.346 42.012 13.166C41.796 12.974 41.472 12.812 41.04 12.68L40.086 12.374C39.438 12.158 38.862 11.918 38.358 11.654C37.866 11.39 37.482 11.048 37.206 10.628C36.942 10.208 36.81 9.674 36.81 9.026C36.81 8.03 37.188 7.238 37.944 6.65C38.7 6.062 39.75 5.768 41.094 5.768C41.778 5.768 42.384 5.834 42.912 5.966C43.452 6.098 43.872 6.296 44.172 6.56C44.484 6.812 44.64 7.124 44.64 7.496C44.64 7.772 44.574 8.012 44.442 8.216C44.322 8.408 44.166 8.576 43.974 8.72C43.698 8.528 43.332 8.366 42.876 8.234C42.42 8.09 41.916 8.018 41.364 8.018C40.788 8.018 40.356 8.114 40.068 8.306C39.78 8.486 39.636 8.726 39.636 9.026C39.636 9.266 39.732 9.464 39.924 9.62C40.116 9.764 40.404 9.896 40.788 10.016L41.778 10.322C42.87 10.658 43.71 11.108 44.298 11.672C44.886 12.224 45.18 12.968 45.18 13.904C45.18 14.912 44.79 15.734 44.01 16.37C43.23 16.994 42.102 17.306 40.626 17.306C39.894 17.306 39.24 17.228 38.664 17.072C38.088 16.916 37.626 16.688 37.278 16.388C36.942 16.088 36.774 15.74 36.774 15.344C36.774 15.032 36.864 14.768 37.044 14.552C37.236 14.324 37.446 14.156 37.674 14.048C37.998 14.312 38.4 14.552 38.88 14.768C39.372 14.972 39.924 15.074 40.536 15.074ZM55.6002 12.68C55.6002 13.616 55.4082 14.432 55.0242 15.128C54.6522 15.812 54.1242 16.34 53.4402 16.712C52.7562 17.084 51.9522 17.27 51.0282 17.27C50.1162 17.27 49.3122 17.09 48.6162 16.73C47.9322 16.358 47.3982 15.83 47.0142 15.146C46.6422 14.45 46.4562 13.628 46.4562 12.68C46.4562 11.732 46.6482 10.922 47.0322 10.25C47.4162 9.566 47.9502 9.038 48.6342 8.666C49.3302 8.282 50.1282 8.09 51.0282 8.09C51.9402 8.09 52.7382 8.282 53.4222 8.666C54.1062 9.038 54.6402 9.572 55.0242 10.268C55.4082 10.952 55.6002 11.756 55.6002 12.68ZM51.0282 10.196C50.4642 10.196 50.0142 10.412 49.6782 10.844C49.3542 11.276 49.1922 11.888 49.1922 12.68C49.1922 13.484 49.3542 14.102 49.6782 14.534C50.0022 14.954 50.4522 15.164 51.0282 15.164C51.6042 15.164 52.0542 14.948 52.3782 14.516C52.7022 14.084 52.8642 13.472 52.8642 12.68C52.8642 11.9 52.7022 11.294 52.3782 10.862C52.0542 10.418 51.6042 10.196 51.0282 10.196ZM61.8484 8.09C62.6284 8.09 63.3364 8.264 63.9724 8.612C64.6084 8.948 65.1124 9.458 65.4844 10.142C65.8564 10.814 66.0424 11.648 66.0424 12.644C66.0424 13.652 65.8444 14.498 65.4484 15.182C65.0644 15.866 64.5184 16.388 63.8104 16.748C63.1024 17.096 62.2744 17.27 61.3264 17.27C60.5824 17.27 59.9404 17.18 59.4004 17C58.8724 16.82 58.4284 16.61 58.0684 16.37C57.8164 16.19 57.6244 15.992 57.4924 15.776C57.3724 15.56 57.3124 15.308 57.3124 15.02V9.314H59.9584V14.822C60.1024 14.906 60.2884 14.984 60.5164 15.056C60.7444 15.128 61.0024 15.164 61.2904 15.164C61.9024 15.164 62.3884 14.954 62.7484 14.534C63.1204 14.114 63.3064 13.484 63.3064 12.644C63.3064 11.792 63.1264 11.174 62.7664 10.79C62.4184 10.394 61.9504 10.196 61.3624 10.196C60.9784 10.196 60.6364 10.268 60.3364 10.412C60.0364 10.556 59.7784 10.718 59.5624 10.898L59.4904 8.738C59.7664 8.582 60.1024 8.438 60.4984 8.306C60.9064 8.162 61.3564 8.09 61.8484 8.09ZM59.9764 9.944H57.3124V5.282C57.4204 5.246 57.5824 5.21 57.7984 5.174C58.0144 5.138 58.2484 5.12 58.5004 5.12C59.0164 5.12 59.3884 5.21 59.6164 5.39C59.8564 5.57 59.9764 5.9 59.9764 6.38V9.944ZM70.3818 10.682V12.932H67.7178V10.358C67.7178 10.022 67.7958 9.74 67.9518 9.512C68.1198 9.272 68.3478 9.062 68.6358 8.882C69.0318 8.642 69.5058 8.456 70.0578 8.324C70.6218 8.18 71.2098 8.108 71.8218 8.108C73.0458 8.108 73.6578 8.516 73.6578 9.332C73.6578 9.524 73.6278 9.704 73.5678 9.872C73.5198 10.04 73.4598 10.184 73.3878 10.304C73.2678 10.28 73.1178 10.262 72.9378 10.25C72.7698 10.226 72.5838 10.214 72.3798 10.214C72.0198 10.214 71.6598 10.256 71.2998 10.34C70.9398 10.424 70.6338 10.538 70.3818 10.682ZM67.7178 12.248L70.3818 12.302V16.982C70.2618 17.018 70.0938 17.048 69.8778 17.072C69.6618 17.108 69.4278 17.126 69.1758 17.126C68.6718 17.126 68.2998 17.036 68.0598 16.856C67.8318 16.676 67.7178 16.352 67.7178 15.884V12.248ZM75.9383 13.94L75.8303 12.14L80.2943 11.438C80.2703 11.102 80.1263 10.79 79.8623 10.502C79.5983 10.214 79.2083 10.07 78.6923 10.07C78.1523 10.07 77.7023 10.256 77.3423 10.628C76.9823 10.988 76.7903 11.504 76.7663 12.176L76.8563 13.418C76.9643 14.078 77.2463 14.552 77.7023 14.84C78.1583 15.116 78.6983 15.254 79.3223 15.254C79.8263 15.254 80.3003 15.182 80.7443 15.038C81.1883 14.894 81.5483 14.744 81.8243 14.588C82.0043 14.696 82.1483 14.846 82.2563 15.038C82.3763 15.23 82.4363 15.434 82.4363 15.65C82.4363 16.01 82.2923 16.31 82.0043 16.55C81.7283 16.79 81.3383 16.97 80.8343 17.09C80.3423 17.21 79.7783 17.27 79.1423 17.27C78.2183 17.27 77.3843 17.096 76.6403 16.748C75.9083 16.4 75.3323 15.878 74.9123 15.182C74.4923 14.486 74.2823 13.616 74.2823 12.572C74.2823 11.804 74.4023 11.138 74.6423 10.574C74.8943 10.01 75.2243 9.548 75.6323 9.188C76.0523 8.816 76.5203 8.54 77.0363 8.36C77.5643 8.18 78.1103 8.09 78.6743 8.09C79.5023 8.09 80.2223 8.258 80.8343 8.594C81.4583 8.918 81.9443 9.362 82.2923 9.926C82.6403 10.49 82.8143 11.144 82.8143 11.888C82.8143 12.26 82.7123 12.542 82.5083 12.734C82.3043 12.926 82.0223 13.046 81.6623 13.094L75.9383 13.94ZM96.7857 12.68C96.7857 13.616 96.5937 14.432 96.2097 15.128C95.8377 15.812 95.3097 16.34 94.6257 16.712C93.9417 17.084 93.1377 17.27 92.2137 17.27C91.3017 17.27 90.4977 17.09 89.8017 16.73C89.1177 16.358 88.5837 15.83 88.1997 15.146C87.8277 14.45 87.6417 13.628 87.6417 12.68C87.6417 11.732 87.8337 10.922 88.2177 10.25C88.6017 9.566 89.1357 9.038 89.8197 8.666C90.5157 8.282 91.3137 8.09 92.2137 8.09C93.1257 8.09 93.9237 8.282 94.6077 8.666C95.2917 9.038 95.8257 9.572 96.2097 10.268C96.5937 10.952 96.7857 11.756 96.7857 12.68ZM92.2137 10.196C91.6497 10.196 91.1997 10.412 90.8637 10.844C90.5397 11.276 90.3777 11.888 90.3777 12.68C90.3777 13.484 90.5397 14.102 90.8637 14.534C91.1877 14.954 91.6377 15.164 92.2137 15.164C92.7897 15.164 93.2397 14.948 93.5637 14.516C93.8877 14.084 94.0497 13.472 94.0497 12.68C94.0497 11.9 93.8877 11.294 93.5637 10.862C93.2397 10.418 92.7897 10.196 92.2137 10.196ZM103.307 13.94L103.199 12.14L107.663 11.438C107.639 11.102 107.495 10.79 107.231 10.502C106.967 10.214 106.577 10.07 106.061 10.07C105.521 10.07 105.071 10.256 104.711 10.628C104.351 10.988 104.159 11.504 104.135 12.176L104.225 13.418C104.333 14.078 104.615 14.552 105.071 14.84C105.527 15.116 106.067 15.254 106.691 15.254C107.195 15.254 107.669 15.182 108.113 15.038C108.557 14.894 108.917 14.744 109.193 14.588C109.373 14.696 109.517 14.846 109.625 15.038C109.745 15.23 109.805 15.434 109.805 15.65C109.805 16.01 109.661 16.31 109.373 16.55C109.097 16.79 108.707 16.97 108.203 17.09C107.711 17.21 107.147 17.27 106.511 17.27C105.587 17.27 104.753 17.096 104.009 16.748C103.277 16.4 102.701 15.878 102.281 15.182C101.861 14.486 101.651 13.616 101.651 12.572C101.651 11.804 101.771 11.138 102.011 10.574C102.263 10.01 102.593 9.548 103.001 9.188C103.421 8.816 103.889 8.54 104.405 8.36C104.933 8.18 105.479 8.09 106.043 8.09C106.871 8.09 107.591 8.258 108.203 8.594C108.827 8.918 109.313 9.362 109.661 9.926C110.009 10.49 110.183 11.144 110.183 11.888C110.183 12.26 110.081 12.542 109.877 12.734C109.673 12.926 109.391 13.046 109.031 13.094L103.307 13.94ZM118.519 8.18C118.891 8.18 119.197 8.264 119.437 8.432C119.689 8.588 119.815 8.858 119.815 9.242C119.815 9.458 119.755 9.794 119.635 10.25C119.515 10.706 119.353 11.234 119.149 11.834C118.957 12.434 118.741 13.046 118.501 13.67C118.261 14.294 118.021 14.882 117.781 15.434C117.541 15.974 117.325 16.424 117.133 16.784C117.001 16.88 116.791 16.964 116.503 17.036C116.215 17.12 115.897 17.162 115.549 17.162C115.141 17.162 114.787 17.108 114.487 17C114.199 16.892 113.995 16.724 113.875 16.496C113.743 16.244 113.581 15.89 113.389 15.434C113.197 14.978 112.993 14.462 112.777 13.886C112.561 13.298 112.345 12.692 112.129 12.068C111.913 11.444 111.715 10.844 111.535 10.268C111.355 9.692 111.211 9.188 111.103 8.756C111.259 8.6 111.457 8.468 111.697 8.36C111.949 8.24 112.219 8.18 112.507 8.18C112.879 8.18 113.185 8.258 113.425 8.414C113.665 8.57 113.839 8.864 113.947 9.296L114.757 12.158C114.853 12.494 114.949 12.83 115.045 13.166C115.153 13.502 115.249 13.814 115.333 14.102C115.417 14.39 115.489 14.636 115.549 14.84H115.621C115.909 13.868 116.197 12.83 116.485 11.726C116.785 10.61 117.049 9.524 117.277 8.468C117.637 8.276 118.051 8.18 118.519 8.18ZM122.485 13.94L122.377 12.14L126.841 11.438C126.817 11.102 126.673 10.79 126.409 10.502C126.145 10.214 125.755 10.07 125.239 10.07C124.699 10.07 124.249 10.256 123.889 10.628C123.529 10.988 123.337 11.504 123.313 12.176L123.403 13.418C123.511 14.078 123.793 14.552 124.249 14.84C124.705 15.116 125.245 15.254 125.869 15.254C126.373 15.254 126.847 15.182 127.291 15.038C127.735 14.894 128.095 14.744 128.371 14.588C128.551 14.696 128.695 14.846 128.803 15.038C128.923 15.23 128.983 15.434 128.983 15.65C128.983 16.01 128.839 16.31 128.551 16.55C128.275 16.79 127.885 16.97 127.381 17.09C126.889 17.21 126.325 17.27 125.689 17.27C124.765 17.27 123.931 17.096 123.187 16.748C122.455 16.4 121.879 15.878 121.459 15.182C121.039 14.486 120.829 13.616 120.829 12.572C120.829 11.804 120.949 11.138 121.189 10.574C121.441 10.01 121.771 9.548 122.179 9.188C122.599 8.816 123.067 8.54 123.583 8.36C124.111 8.18 124.657 8.09 125.221 8.09C126.049 8.09 126.769 8.258 127.381 8.594C128.005 8.918 128.491 9.362 128.839 9.926C129.187 10.49 129.361 11.144 129.361 11.888C129.361 12.26 129.259 12.542 129.055 12.734C128.851 12.926 128.569 13.046 128.209 13.094L122.485 13.94ZM139.261 11.402V13.094H136.579V11.492C136.579 11.048 136.447 10.724 136.183 10.52C135.931 10.304 135.595 10.196 135.175 10.196C134.875 10.196 134.599 10.238 134.347 10.322C134.095 10.394 133.867 10.484 133.663 10.592V13.094H130.999V10.286C130.999 9.986 131.059 9.74 131.179 9.548C131.311 9.344 131.497 9.164 131.737 9.008C132.121 8.744 132.613 8.528 133.213 8.36C133.813 8.18 134.473 8.09 135.193 8.09C136.489 8.09 137.491 8.378 138.199 8.954C138.907 9.518 139.261 10.334 139.261 11.402ZM130.999 12.266H133.663V16.982C133.543 17.018 133.375 17.048 133.159 17.072C132.943 17.108 132.709 17.126 132.457 17.126C131.953 17.126 131.581 17.036 131.341 16.856C131.113 16.676 130.999 16.352 130.999 15.884V12.266ZM136.579 12.266H139.261V16.982C139.141 17.018 138.973 17.048 138.757 17.072C138.541 17.108 138.307 17.126 138.055 17.126C137.551 17.126 137.179 17.036 136.939 16.856C136.699 16.676 136.579 16.352 136.579 15.884V12.266ZM141.371 12.248H144.017V14.174C144.017 14.51 144.125 14.756 144.341 14.912C144.557 15.068 144.863 15.146 145.259 15.146C145.439 15.146 145.631 15.128 145.835 15.092C146.051 15.044 146.231 14.99 146.375 14.93C146.471 15.038 146.555 15.17 146.627 15.326C146.711 15.482 146.753 15.662 146.753 15.866C146.753 16.274 146.585 16.61 146.249 16.874C145.913 17.138 145.349 17.27 144.557 17.27C143.549 17.27 142.763 17.042 142.199 16.586C141.647 16.13 141.371 15.386 141.371 14.354V12.248ZM143.063 10.61V8.558H146.519C146.579 8.654 146.639 8.792 146.699 8.972C146.759 9.152 146.789 9.35 146.789 9.566C146.789 9.926 146.705 10.19 146.537 10.358C146.381 10.526 146.165 10.61 145.889 10.61H143.063ZM144.017 12.698H141.371V6.236C141.491 6.2 141.659 6.164 141.875 6.128C142.091 6.08 142.319 6.056 142.559 6.056C143.075 6.056 143.447 6.146 143.675 6.326C143.903 6.506 144.017 6.836 144.017 7.316V12.698ZM157.008 12.68C157.008 13.616 156.816 14.432 156.432 15.128C156.06 15.812 155.532 16.34 154.848 16.712C154.164 17.084 153.36 17.27 152.436 17.27C151.524 17.27 150.72 17.09 150.024 16.73C149.34 16.358 148.806 15.83 148.422 15.146C148.05 14.45 147.864 13.628 147.864 12.68C147.864 11.732 148.056 10.922 148.44 10.25C148.824 9.566 149.358 9.038 150.042 8.666C150.738 8.282 151.536 8.09 152.436 8.09C153.348 8.09 154.146 8.282 154.83 8.666C155.514 9.038 156.048 9.572 156.432 10.268C156.816 10.952 157.008 11.756 157.008 12.68ZM152.436 10.196C151.872 10.196 151.422 10.412 151.086 10.844C150.762 11.276 150.6 11.888 150.6 12.68C150.6 13.484 150.762 14.102 151.086 14.534C151.41 14.954 151.86 15.164 152.436 15.164C153.012 15.164 153.462 14.948 153.786 14.516C154.11 14.084 154.272 13.472 154.272 12.68C154.272 11.9 154.11 11.294 153.786 10.862C153.462 10.418 153.012 10.196 152.436 10.196Z" fill="#F9F9F9"/>
</svg>
